<svg width="156" height="156" viewBox="0 0 156 156" fill="none" xmlns="http://www.w3.org/2000/svg">
<mask id="path-1-inside-1_64_1298" fill="white">
<path fill-rule="evenodd" clip-rule="evenodd" d="M0 39.75H38.75H77.5V78.5H38.75V117.25H77.5V156H38.75H0V117.25V78.5V39.75Z"/>
</mask>
<path d="M0 39.75V38.75H-1V39.75H0ZM77.5 39.75H78.5V38.75H77.5V39.75ZM77.5 78.5V79.5H78.5V78.5H77.5ZM38.75 78.5V77.5H37.75V78.5H38.75ZM38.75 117.25H37.75V118.25H38.75V117.25ZM77.5 117.25H78.5V116.25H77.5V117.25ZM77.5 156V157H78.5V156H77.5ZM0 156H-1V157H0V156ZM38.75 39.75V38.75H0V39.75V40.75H38.75V39.75ZM77.5 39.75V38.75H38.75V39.75V40.75H77.5V39.75ZM77.5 78.5H78.5V39.75H77.5H76.5V78.5H77.5ZM38.75 78.5V79.5H77.5V78.5V77.5H38.75V78.5ZM38.75 117.25H39.75V78.5H38.75H37.75V117.25H38.75ZM38.75 117.25V118.25H77.5V117.25V116.25H38.75V117.25ZM77.5 117.25H76.5V156H77.5H78.5V117.25H77.5ZM77.5 156V155H38.75V156V157H77.5V156ZM0 156V157H38.75V156V155H0V156ZM0 117.25H-1V156H0H1V117.25H0ZM0 78.5H-1V117.25H0H1V78.5H0ZM0 39.75H-1V78.5H0H1V39.75H0Z" fill="#7BE841" mask="url(#path-1-inside-1_64_1298)"/>
<mask id="path-3-outside-2_64_1298" maskUnits="userSpaceOnUse" x="76.5" y="0" width="80" height="119" fill="black">
<rect fill="white" x="76.5" width="80" height="119"/>
<path fill-rule="evenodd" clip-rule="evenodd" d="M77.5 1H116.25H155V39.75V78.5V117.25H116.25H77.5V78.5H116.25V39.75H77.5V1Z"/>
</mask>
<path d="M77.5 1V0H76.5V1H77.5ZM155 1H156V0H155V1ZM155 117.25V118.25H156V117.25H155ZM77.5 117.25H76.5V118.25H77.5V117.25ZM77.5 78.5V77.5H76.5V78.5H77.5ZM116.25 78.5V79.5H117.25V78.5H116.25ZM116.25 39.75H117.25V38.75H116.25V39.75ZM77.5 39.75H76.5V40.75H77.5V39.75ZM116.25 1V0H77.5V1V2H116.25V1ZM155 1V0H116.25V1V2H155V1ZM155 39.75H156V1H155H154V39.75H155ZM155 78.5H156V39.75H155H154V78.5H155ZM155 117.25H156V78.5H155H154V117.25H155ZM116.25 117.25V118.25H155V117.25V116.25H116.25V117.25ZM116.25 117.25V116.25H77.5V117.25V118.25H116.25V117.25ZM77.5 117.25H78.5V78.5H77.5H76.5V117.25H77.5ZM77.5 78.5V79.5H116.25V78.5V77.5H77.5V78.5ZM116.25 39.75H115.25V78.5H116.25H117.25V39.75H116.25ZM77.5 39.75V40.75H116.25V39.75V38.75H77.5V39.75ZM77.5 1H76.5V39.75H77.5H78.5V1H77.5Z" fill="#7BE841" mask="url(#path-3-outside-2_64_1298)"/>
</svg>
