<svg width="570" height="140" viewBox="0 0 570 140" fill="none" xmlns="http://www.w3.org/2000/svg">
<path d="M0.400002 140V-9.53674e-06H21.6L85.4 79H77.8L141.6 -9.53674e-06H162.8V140H141.2V80.6C141.2 69.5333 141.467 59.1333 142 49.4C142.533 39.6667 143.6 29.7333 145.2 19.6L147.4 27.8L88.2 99.8H75L15.8 27.8L18 19.6C19.6 29.7333 20.6667 39.6667 21.2 49.4C21.7333 59.1333 22 69.5333 22 80.6V140H0.400002ZM235.556 140V-9.53674e-06H311.956C323.69 -9.53674e-06 333.49 1.39999 341.356 4.2C349.223 6.86666 355.156 10.8 359.156 16C363.156 21.2 365.156 27.6 365.156 35.2C365.156 42.5333 362.69 48.9333 357.756 54.4C352.823 59.7333 345.623 63.5333 336.156 65.8L337.556 62C343.556 63.3333 349.223 65.4667 354.556 68.4C359.89 71.3333 364.223 75.3333 367.556 80.4C370.89 85.3333 372.556 91.4667 372.556 98.8C372.556 106.933 370.89 113.667 367.556 119C364.356 124.333 360.023 128.533 354.556 131.6C349.223 134.667 343.29 136.867 336.756 138.2C330.223 139.4 323.69 140 317.156 140H235.556ZM257.156 119.2H317.956C324.356 119.2 329.956 118.467 334.756 117C339.69 115.533 343.556 113.267 346.356 110.2C349.156 107 350.556 103.067 350.556 98.4C350.556 93.0667 348.823 88.9333 345.356 86C341.89 83.0667 337.556 81 332.356 79.8C327.156 78.4667 322.023 77.8 316.956 77.8H257.156V119.2ZM257.156 56.8H315.956C320.756 56.8 325.223 56.0667 329.356 54.6C333.49 53.1333 336.756 51 339.156 48.2C341.69 45.4 342.956 42.1333 342.956 38.4C342.956 32 340.09 27.4667 334.356 24.8C328.756 22.1333 321.823 20.8 313.556 20.8H257.156V56.8ZM480.692 140V77.4L484.692 92.8L409.492 -9.53674e-06H439.492L494.092 70.6H489.492L542.692 -9.53674e-06H569.492L501.292 87.4L502.292 75.8V140H480.692Z" fill="#02CC98"/>
</svg>
