<svg width="14" height="14" viewBox="0 0 14 14" fill="none" xmlns="http://www.w3.org/2000/svg">
<path d="M6.67 13.85C6.5384 13.8508 6.40793 13.8255 6.2861 13.7758C6.16426 13.726 6.05344 13.6527 5.96 13.56C5.77375 13.3726 5.66921 13.1192 5.66921 12.855C5.66921 12.5908 5.77375 12.3374 5.96 12.15L11.06 6.99999L6 1.93999C5.89532 1.85035 5.8103 1.74003 5.75028 1.61596C5.69025 1.4919 5.65652 1.35677 5.6512 1.21905C5.64588 1.08133 5.66909 0.943996 5.71936 0.815671C5.76964 0.687346 5.8459 0.570798 5.94335 0.473344C6.04081 0.375889 6.15735 0.299631 6.28568 0.249357C6.414 0.199082 6.55134 0.175876 6.68906 0.181196C6.82677 0.186515 6.96191 0.220245 7.08597 0.280269C7.21004 0.340292 7.32035 0.425313 7.41 0.529994L13.22 6.33999C13.4063 6.52736 13.5108 6.78081 13.5108 7.04499C13.5108 7.30918 13.4063 7.56263 13.22 7.74999L7.41 13.56C7.31303 13.6563 7.19733 13.7318 7.07005 13.7817C6.94277 13.8315 6.80662 13.8548 6.67 13.85ZM2.14 13.56L8 7.74999C8.18625 7.56263 8.29079 7.30918 8.29079 7.04499C8.29079 6.78081 8.18625 6.52736 8 6.33999L2.14 0.529994C1.9487 0.366168 1.70262 0.280562 1.45095 0.290283C1.19927 0.300004 0.960533 0.404336 0.782439 0.582431C0.604344 0.760525 0.500012 0.999265 0.490291 1.25094C0.480569 1.50262 0.566176 1.74869 0.730002 1.93999L5.83 7.03999L0.730002 12.15C0.543751 12.3374 0.439209 12.5908 0.439209 12.855C0.439209 13.1192 0.543751 13.3726 0.730002 13.56C0.917364 13.7462 1.17082 13.8508 1.435 13.8508C1.69919 13.8508 1.95264 13.7462 2.14 13.56Z" fill="black"/>
</svg>
