<svg width="24" height="24" viewBox="0 0 24 24" fill="#ffffff" xmlns="http://www.w3.org/2000/svg">
<path d="M18.061 12.354C17.9217 12.2146 17.7563 12.104 17.5743 12.0286C17.3922 11.9532 17.1971 11.9143 17 11.9143C16.8029 11.9143 16.6078 11.9532 16.4258 12.0286C16.2437 12.104 16.0783 12.2146 15.939 12.354L13.5 14.793V6C13.5 5.60218 13.342 5.22064 13.0607 4.93934C12.7794 4.65804 12.3978 4.5 12 4.5C11.6022 4.5 11.2206 4.65804 10.9393 4.93934C10.658 5.22064 10.5 5.60218 10.5 6V14.793L8.061 12.354C7.77974 12.0726 7.39822 11.9145 7.00036 11.9144C6.6025 11.9143 6.2209 12.0722 5.9395 12.3535C5.65811 12.6348 5.49997 13.0163 5.49988 13.4141C5.49978 13.812 5.65774 14.1936 5.939 14.475L9.525 18.061C9.85001 18.386 10.2359 18.6439 10.6605 18.8198C11.0852 18.9957 11.5403 19.0863 12 19.0863C12.4597 19.0863 12.9148 18.9957 13.3395 18.8198C13.7641 18.6439 14.15 18.386 14.475 18.061L18.061 14.475C18.3422 14.1937 18.5002 13.8122 18.5002 13.4145C18.5002 13.0168 18.3422 12.6353 18.061 12.354Z" fill="#ffffff"/>
</svg>
